<?xml version="1.0" encoding="utf-8"?>
<!-- Generator: Adobe Illustrator 24.3.0, SVG Export Plug-In . SVG Version: 6.00 Build 0)  -->
<svg version="1.1" id="레이어_1" xmlns="http://www.w3.org/2000/svg" xmlns:xlink="http://www.w3.org/1999/xlink" x="0px"
	 y="0px" viewBox="0 0 24 24" style="enable-background:new 0 0 24 24;" xml:space="preserve">
<style type="text/css">
	.st0{fill:#79BACF;}
	.st1{fill:#FFFFFF;}
</style>
<circle class="st0" cx="12" cy="12" r="9.71"/>
<g>
	<g>
		<path class="st1" d="M8.25,3.74C6.27,4.46,4.71,6.06,4.08,8.08c-0.16,0.5,0.18,1.11,0.7,1.23c0.54,0.12,1.06-0.16,1.23-0.7
			c0.03-0.1,0.07-0.2,0.1-0.31c0.01-0.03,0.04-0.13,0.06-0.15C6.15,8.2,6.13,8.25,6.11,8.29c0.01-0.03,0.03-0.07,0.04-0.1
			c0.08-0.18,0.17-0.35,0.27-0.52C6.48,7.58,6.54,7.49,6.6,7.4c0.05-0.08,0.11-0.21,0.19-0.26C6.76,7.18,6.73,7.21,6.7,7.25
			C6.72,7.23,6.74,7.2,6.76,7.17c0.03-0.03,0.06-0.07,0.09-0.1C6.92,6.98,6.99,6.9,7.07,6.83C7.21,6.68,7.36,6.54,7.52,6.4
			C7.56,6.37,7.6,6.34,7.64,6.3c0.14-0.11-0.19,0.14-0.03,0.03c0.08-0.06,0.16-0.11,0.24-0.17C8.02,6.04,8.2,5.94,8.38,5.85
			C8.48,5.8,8.58,5.74,8.67,5.71C8.61,5.73,8.46,5.8,8.61,5.74c0.06-0.02,0.12-0.04,0.18-0.07c0.49-0.18,0.87-0.69,0.7-1.23
			C9.33,3.96,8.78,3.55,8.25,3.74L8.25,3.74z"/>
	</g>
</g>
<g>
	<g>
		<path class="st1" d="M4.21,11.99c1.29,0,1.29-2,0-2C2.93,9.99,2.93,11.99,4.21,11.99L4.21,11.99z"/>
	</g>
</g>
<g>
	<g>
		<path class="st1" d="M19.6,15.86c1.29,0,1.29-2,0-2C18.31,13.86,18.31,15.86,19.6,15.86L19.6,15.86z"/>
	</g>
</g>
<g>
	<g>
		<path class="st1" d="M17.55,18.73c1.29,0,1.29-2,0-2C16.26,16.73,16.26,18.73,17.55,18.73L17.55,18.73z"/>
	</g>
</g>
<g>
	<g>
		<path class="st1" d="M14.36,20.69c1.29,0,1.29-2,0-2C13.07,18.69,13.07,20.69,14.36,20.69L14.36,20.69z"/>
	</g>
</g>
</svg>
