<svg id="레이어_1" data-name="레이어 1" xmlns="http://www.w3.org/2000/svg" viewBox="0 0 100 80"><defs><style>.cls-1{fill:#29abe2;}.cls-2{fill:#fdfa9c;}.cls-2,.cls-3{stroke:#000;stroke-miterlimit:10;stroke-width:0.25px;}.cls-3{fill:#fff;}.cls-4{font-size:12px;font-family:NanumHeuinGgoRiSuRi, Nanum HeuinGgoRiSuRi;}.cls-5{fill:#ecbc18;}.cls-6{fill:#8cc63f;}</style></defs><path class="cls-1" d="M80.64,25.22a6.4,6.4,0,0,0-1.09.1c-1.43-3-4.09-5-7.16-5A7.8,7.8,0,0,0,66,24a8.37,8.37,0,0,0-10.07,3.37,5.43,5.43,0,0,0-1.29-.15,5.66,5.66,0,1,0,0,11.31,5.6,5.6,0,0,0,2.61-.64,8.33,8.33,0,0,0,10.68.72,7.24,7.24,0,0,0,4.48,1.6,7.45,7.45,0,0,0,5.39-2.43,6.6,6.6,0,1,0,2.86-12.56Z"/><path class="cls-1" d="M42.24,50a6.4,6.4,0,0,0-1.09.1c-1.43-3-4.1-5-7.16-5a7.78,7.78,0,0,0-6.41,3.7,8.22,8.22,0,0,0-3-.56,8.37,8.37,0,0,0-7.09,3.93A5.43,5.43,0,0,0,16.22,52a5.66,5.66,0,1,0,0,11.31,5.6,5.6,0,0,0,2.61-.64,8.33,8.33,0,0,0,10.68.72A7.24,7.24,0,0,0,34,65a7.42,7.42,0,0,0,5.39-2.44,6.53,6.53,0,0,0,2.86.66,6.61,6.61,0,0,0,0-13.21Z"/><path class="cls-2" d="M82.22,10.54s-.86,10.2-7.44,11.23c0,0,6.87.87,7.38,10.8,0,0-.46-12.18,6.58-10.19C88.74,22.38,81.13,19.18,82.22,10.54Z"/><path class="cls-3" d="M87.39,14.53s-.27,3.21-2.34,3.53c0,0,2.16.28,2.32,3.4,0,0-.15-3.83,2.07-3.21A3.55,3.55,0,0,1,87.39,14.53Z"/><path class="cls-2" d="M17.75,69.46l-1.23-4a3.84,3.84,0,0,0-2.92-2.62l-3-.57,2.15-.78a7,7,0,0,0,4.1-4l1-2.52.28,1c.78,2.75,3.58,4.8,6.3,5.66l-.66.14-2.31.94a5,5,0,0,0-1.48.9,3.55,3.55,0,0,0-1,1.79Z"/><text class="cls-4" transform="translate(23.25 35.63)">오늘도<tspan x="0" y="14.4">고생하셨어요~!!</tspan></text><path class="cls-5" d="M20.53,29.06c-.47,1.92-4.1,2.17-3.12-2.29-1.17,4.41-4.29,2.53-3.82.61-1.92-.46-2.17-4.1,2.29-3.12-4.42-1.16-2.53-4.29-.61-3.82.46-1.92,4.1-2.17,3.12,2.29,1.16-4.41,4.28-2.53,3.82-.61,1.92.46,2.16,4.1-2.29,3.12C24.33,26.4,22.45,29.52,20.53,29.06Z"/><path class="cls-6" d="M87.41,42.87c.49.81-.66,2.13-1.84.28,1.1,1.9-.61,2.32-1.1,1.5-.82.5-2.14-.66-.28-1.84-1.9,1.1-2.32-.61-1.51-1.1-.49-.81.67-2.13,1.85-.28-1.11-1.9.6-2.32,1.09-1.51.82-.49,2.14.67.28,1.85C87.8,40.67,88.22,42.37,87.41,42.87Z"/><path class="cls-3" d="M13.3,56.15s-.32,4.08-2.74,4.5c0,0,2.53.34,2.72,4.32,0,0-.17-4.88,2.42-4.08A4.57,4.57,0,0,1,13.3,56.15Z"/></svg>